<?xml version="1.0" standalone="no"?>
<!DOCTYPE svg PUBLIC "-//W3C//DTD SVG 20010904//EN"
 "http://www.w3.org/TR/2001/REC-SVG-20010904/DTD/svg10.dtd">
<svg version="1.0" xmlns="http://www.w3.org/2000/svg"
 width="200.000000pt" height="200.000000pt" viewBox="0 0 200.000000 200.000000"
 preserveAspectRatio="xMidYMid meet">
<metadata>
Created by potrace 1.14, written by Peter Selinger 2001-2017
</metadata>
<g transform="translate(0.000000,200.000000) scale(0.100000,-0.100000)"
fill="#000000" stroke="none">
<path d="M1020 1698 c-14 -4 -38 -28 -55 -52 -16 -24 -32 -44 -35 -43 -3 1
-23 -2 -45 -6 -36 -7 -47 -17 -110 -103 -68 -92 -83 -111 -115 -151 -8 -10
-29 -37 -45 -61 -21 -29 -42 -46 -68 -54 -23 -7 -50 -26 -67 -47 -47 -60 -37
-78 103 -181 67 -50 131 -90 142 -90 42 0 85 56 85 111 0 28 10 50 46 95 25
33 51 57 57 56 7 -2 32 -5 56 -6 42 -2 46 -4 54 -37 16 -60 3 -160 -30 -230
-58 -124 -138 -174 -270 -170 -25 1 -33 6 -33 19 0 11 -60 64 -162 142 -168
130 -185 140 -205 133 -24 -9 -85 -102 -78 -120 3 -10 62 -61 132 -113 69 -52
135 -103 147 -112 l21 -16 -30 -55 -29 -55 -97 -4 c-120 -4 -152 -21 -157 -85
-3 -35 1 -44 28 -67 l32 -26 387 0 c379 0 388 0 410 21 46 43 47 93 2 134 -22
19 -51 23 -168 24 -46 1 -53 4 -72 34 l-20 32 22 9 c99 41 156 85 210 164 56
80 88 217 76 324 -7 60 -41 184 -65 231 -17 34 -18 57 -3 57 7 0 10 18 7 50
-4 44 -1 55 29 97 18 25 33 57 33 70 0 46 -75 97 -120 81z"/>
<path d="M1364 1072 c-62 -6 -88 -64 -48 -107 21 -23 24 -35 24 -107 l0 -81
-95 -188 c-52 -103 -95 -199 -95 -213 0 -14 11 -37 24 -53 l24 -27 253 -1
c140 -1 265 2 278 7 33 12 61 46 61 74 0 12 -43 107 -96 210 l-96 188 0 82 c0
70 3 86 21 105 26 28 27 70 2 93 -15 13 -41 17 -122 19 -57 1 -118 1 -135 -1z"/>
</g>
</svg>
